<svg xmlns="http://www.w3.org/2000/svg" viewBox="0 0 256 256" role="img" aria-labelledby="title desc">
  <title>UniFi Gateway Refactored Logo</title>
  <desc>Stylised gateway shield with wireless waves.</desc>
  <defs>
    <linearGradient id="grad" x1="0%" y1="0%" x2="100%" y2="100%">
      <stop offset="0%" stop-color="#1f9dd1"/>
      <stop offset="100%" stop-color="#0f4c81"/>
    </linearGradient>
  </defs>
  <rect width="256" height="256" rx="48" fill="url(#grad)"/>
  <g fill="none" stroke="#ffffff" stroke-width="12" stroke-linecap="round" stroke-linejoin="round">
    <path d="M128 56c-40 0-72 32-72 72s32 72 72 72 72-32 72-72" opacity="0.35"/>
    <path d="M128 80c-28 0-52 24-52 52s24 52 52 52 52-24 52-52" opacity="0.6"/>
    <path d="M128 104c-16 0-32 16-32 32s16 32 32 32 32-16 32-32"/>
  </g>
  <path fill="#ffffff" d="M128 36l54 24v52c0 42-23 80-54 96-31-16-54-54-54-96V60z" opacity="0.08"/>
  <path fill="#ffffff" d="M116 140h24v52h-24z" opacity="0.85"/>
  <circle cx="128" cy="128" r="20" fill="#ffffff"/>
</svg>
